# Hexagonal prism (radius 0.4, height 0.02, centered at origin)
o ScaledHexagonPrism

# Vertex coordinates
# Top face (z = +0.01) - Vertices 1-6
v 0.4 0.0 0.01
v 0.2 0.34641016 0.01
v -0.2 0.34641016 0.01
v -0.4 0.0 0.01
v -0.2 -0.34641016 0.01
v 0.2 -0.34641016 0.01

# Bottom face (z = -0.01) - Vertices 7-12
v 0.4 0.0 -0.01
v 0.2 0.34641016 -0.01
v -0.2 0.34641016 -0.01
v -0.4 0.0 -0.01
v -0.2 -0.34641016 -0.01
v 0.2 -0.34641016 -0.01

# Face definitions
# Top faces
f 1 2 3
f 1 3 4
f 1 4 5
f 1 5 6

# Bottom faces
f 7 9 8
f 7 10 9
f 7 11 10
f 7 12 11

# Sides
f 1 2 8
f 1 8 7

f 2 3 9
f 2 9 8

f 3 4 10
f 3 10 9

f 4 5 11
f 4 11 10

f 5 6 12
f 5 12 11

f 6 1 7
f 6 7 12